<?xml version="1.0" standalone="no"?>
<!DOCTYPE svg PUBLIC "-//W3C//DTD SVG 20010904//EN"
 "http://www.w3.org/TR/2001/REC-SVG-20010904/DTD/svg10.dtd">
<svg version="1.0" xmlns="http://www.w3.org/2000/svg"
 width="1600.000000pt" height="1600.000000pt" viewBox="0 0 1600.000000 1600.000000"
 preserveAspectRatio="xMidYMid meet">
<metadata>
Created by potrace 1.14, written by Peter Selinger 2001-2017
</metadata>
<g transform="translate(0.000000,1600.000000) scale(0.100000,-0.100000)"
fill="#000000" stroke="none">
<path d="M0 13000 l0 -2000 1000 0 1000 0 0 -1000 0 -1000 -1000 0 -1000 0 0
-500 0 -500 1500 0 1500 0 0 2000 0 2000 -1000 0 -1000 0 0 1000 0 1000 1000
0 1000 0 0 500 0 500 -1500 0 -1500 0 0 -2000z"/>
<path d="M4000 14500 l0 -500 500 0 500 0 0 -3000 0 -3000 500 0 500 0 0 3000
0 3000 500 0 500 0 0 500 0 500 -1500 0 -1500 0 0 -500z"/>
<path d="M8000 11500 l0 -3500 500 0 500 0 0 1500 0 1500 1000 0 1000 0 0
-1500 0 -1500 500 0 500 0 0 3500 0 3500 -2000 0 -2000 0 0 -3500z m3000 1500
l0 -1000 -1000 0 -1000 0 0 1000 0 1000 1000 0 1000 0 0 -1000z"/>
<path d="M13000 14500 l0 -500 500 0 500 0 0 -3000 0 -3000 500 0 500 0 0
3000 0 3000 500 0 500 0 0 500 0 500 -1500 0 -1500 0 0 -500z"/>
<path d="M0 6500 l0 -500 1500 0 1500 0 0 -1000 0 -1000 -1500 0 -1500 0 0
-2000 0 -2000 2000 0 2000 0 0 500 0 500 -1500 0 -1500 0 0 1000 0 1000 1500
0 1500 0 0 2000 0 2000 -2000 0 -2000 0 0 -500z"/>
<path d="M5000 5000 l0 -2000 2000 0 2000 0 0 -1500 0 -1500 500 0 500 0 0
3500 0 3500 -500 0 -500 0 0 -1500 0 -1500 -1500 0 -1500 0 0 1500 0 1500
-500 0 -500 0 0 -2000z"/>
<path d="M11000 3500 l0 -3500 2500 0 2500 0 0 3500 0 3500 -2500 0 -2500 0 0
-3500z m4000 0 l0 -2500 -1500 0 -1500 0 0 2500 0 2500 1500 0 1500 0 0 -2500z"/>
</g>
</svg>
