<?xml version="1.0" standalone="no"?>
<!DOCTYPE svg PUBLIC "-//W3C//DTD SVG 20010904//EN"
 "http://www.w3.org/TR/2001/REC-SVG-20010904/DTD/svg10.dtd">
<svg version="1.0" xmlns="http://www.w3.org/2000/svg"
 width="3486.000000pt" height="3486.000000pt" viewBox="0 0 3486.000000 3486.000000"
 preserveAspectRatio="xMidYMid meet">
<metadata>
Created by potrace 1.14, written by Peter Selinger 2001-2017
</metadata>
<g transform="translate(0.000000,3486.000000) scale(0.100000,-0.100000)"
fill="#000000" stroke="none">
<path d="M9055 32648 c-285 -53 -549 -227 -701 -463 -80 -124 -8234 -14252
-8266 -14322 -15 -34 -40 -102 -55 -150 -26 -83 -27 -99 -27 -283 0 -184 1
-200 27 -283 15 -48 40 -116 55 -150 32 -70 8186 -14198 8266 -14322 138 -214
364 -375 626 -447 l85 -23 8355 0 8355 0 85 23 c262 72 488 233 627 447 79
124 8233 14252 8265 14322 121 268 121 598 0 866 -32 70 -8186 14198 -8265
14322 -138 212 -357 370 -622 447 l-80 23 -8340 1 c-5163 1 -8359 -2 -8390 -8z"/>
</g>
</svg>
