<?xml version="1.0" encoding="UTF-8"?>
<svg xmlns="http://www.w3.org/2000/svg" xmlns:xlink="http://www.w3.org/1999/xlink" width="504" height="144" viewBox="0 0 504 144">
<rect x="-50.4" y="-14.4" width="604.8" height="172.8" fill="rgb(100%, 100%, 100%)" fill-opacity="1"/>
<path fill="none" stroke-width="1.125" stroke-linecap="round" stroke-linejoin="round" stroke="rgb(0%, 0%, 0%)" stroke-opacity="1" stroke-miterlimit="10" d="M 18.667969 134.152344 L 23.332031 134.011719 L 28 133.8125 L 32.667969 133.527344 L 37.332031 133.125 L 42 132.570312 L 46.667969 131.820312 L 51.332031 130.8125 L 56 129.492188 L 60.667969 127.78125 L 65.332031 125.609375 L 70 122.890625 L 74.667969 119.550781 L 79.332031 115.515625 L 84 110.730469 L 88.667969 105.15625 L 93.332031 98.792969 L 98 91.660156 L 102.667969 83.835938 L 107.332031 75.433594 L 112 66.617188 L 116.667969 57.597656 L 121.332031 48.617188 L 126 39.953125 L 130.667969 31.898438 L 135.332031 24.742188 L 140 18.75 L 144.667969 14.160156 L 149.332031 11.152344 L 154 9.847656 L 158.667969 10.292969 L 163.332031 12.445312 L 168 16.207031 L 172.667969 21.390625 L 177.332031 27.761719 L 182 35.050781 L 186.667969 42.945312 L 191.332031 51.136719 L 196 59.324219 L 200.667969 67.226562 L 205.332031 74.601562 L 210 81.253906 L 214.667969 87.019531 L 219.332031 91.800781 L 224 95.535156 L 228.667969 98.207031 L 233.332031 99.824219 L 238 100.441406 L 242.667969 100.121094 L 247.332031 98.945312 L 252 97.015625 L 256.667969 94.425781 L 261.332031 91.289062 L 266 87.707031 L 270.667969 83.785156 L 275.332031 79.636719 L 280 75.359375 L 284.667969 71.058594 L 289.332031 66.832031 L 294 62.78125 L 298.667969 58.992188 L 303.332031 55.550781 L 308 52.53125 L 312.667969 50.007812 L 317.332031 48.035156 L 322 46.65625 L 326.667969 45.90625 L 331.332031 45.800781 L 336 46.34375 L 340.667969 47.523438 L 345.332031 49.3125 L 350 51.675781 L 354.667969 54.566406 L 359.332031 57.914062 L 364 61.660156 L 368.667969 65.730469 L 373.332031 70.046875 L 378 74.535156 L 382.667969 79.117188 L 387.332031 83.722656 L 392 88.28125 L 396.667969 92.742188 L 401.332031 97.046875 L 406 101.148438 L 410.667969 105.019531 L 415.332031 108.632812 L 420 111.964844 L 424.667969 115.007812 L 429.332031 117.765625 L 434 120.234375 L 438.667969 122.425781 L 443.332031 124.351562 L 448 126.03125 L 452.667969 127.480469 L 457.332031 128.722656 L 462 129.777344 L 466.667969 130.664062 L 471.332031 131.402344 L 476 132.015625 L 480.667969 132.519531 L 485.332031 132.925781 "/>
<path fill="none" stroke-width="1.125" stroke-linecap="round" stroke-linejoin="round" stroke="rgb(49.803922%, 49.803922%, 49.803922%)" stroke-opacity="1" stroke-miterlimit="10" d="M 18.667969 134.421875 L 485.332031 134.421875 "/>
<path fill="none" stroke-width="1.125" stroke-linecap="round" stroke-linejoin="round" stroke="rgb(0%, 0%, 0%)" stroke-opacity="1" stroke-miterlimit="10" d="M 18.667969 134.152344 L 23.332031 134.011719 L 28 133.8125 L 32.667969 133.527344 L 37.332031 133.125 L 42 132.570312 L 46.667969 131.820312 L 51.332031 130.8125 L 56 129.492188 L 60.667969 127.78125 L 65.332031 125.609375 L 70 122.890625 L 74.667969 119.550781 L 79.332031 115.515625 L 84 110.730469 L 88.667969 105.15625 L 93.332031 98.792969 L 98 91.660156 L 102.667969 83.835938 L 107.332031 75.433594 L 112 66.617188 L 116.667969 57.597656 L 121.332031 48.617188 L 126 39.953125 L 130.667969 31.898438 L 135.332031 24.742188 L 140 18.75 L 144.667969 14.160156 L 149.332031 11.152344 L 154 9.847656 L 158.667969 10.292969 L 163.332031 12.445312 L 168 16.207031 L 172.667969 21.390625 L 177.332031 27.761719 L 182 35.050781 L 186.667969 42.945312 L 191.332031 51.136719 L 196 59.324219 L 200.667969 67.226562 L 205.332031 74.601562 L 210 81.253906 L 214.667969 87.019531 L 219.332031 91.800781 L 224 95.535156 L 228.667969 98.207031 L 233.332031 99.824219 L 238 100.441406 L 242.667969 100.121094 L 247.332031 98.945312 L 252 97.015625 L 256.667969 94.425781 L 261.332031 91.289062 L 266 87.707031 L 270.667969 83.785156 L 275.332031 79.636719 L 280 75.359375 L 284.667969 71.058594 L 289.332031 66.832031 L 294 62.78125 L 298.667969 58.992188 L 303.332031 55.550781 L 308 52.53125 L 312.667969 50.007812 L 317.332031 48.035156 L 322 46.65625 L 326.667969 45.90625 L 331.332031 45.800781 L 336 46.34375 L 340.667969 47.523438 L 345.332031 49.3125 L 350 51.675781 L 354.667969 54.566406 L 359.332031 57.914062 L 364 61.660156 L 368.667969 65.730469 L 373.332031 70.046875 L 378 74.535156 L 382.667969 79.117188 L 387.332031 83.722656 L 392 88.28125 L 396.667969 92.742188 L 401.332031 97.046875 L 406 101.148438 L 410.667969 105.019531 L 415.332031 108.632812 L 420 111.964844 L 424.667969 115.007812 L 429.332031 117.765625 L 434 120.234375 L 438.667969 122.425781 L 443.332031 124.351562 L 448 126.03125 L 452.667969 127.480469 L 457.332031 128.722656 L 462 129.777344 L 466.667969 130.664062 L 471.332031 131.402344 L 476 132.015625 L 480.667969 132.519531 L 485.332031 132.925781 "/>
</svg>
